<?xml version="1.0" encoding="UTF-8"?>
<svg height="600" width="800" xmlns="http://www.w3.org/2000/svg" xmlns:xlink="http://www.w3.org/1999/xlink">
    <g id="Notes" font-family="'LucidaGrande', 'Lucida Grande', sans-serif" font-size="13">
        <rect fill="white" height="600.0" width="800.0" x="0.0" y="0.0" />
        <g font-size="13">
            <text x="18.0" y="176.0">Small</text>
            <text x="18.0" y="376.0">Medium</text>
            <text x="18.0" y="576.0">Large</text>
        </g>
        <g font-size="9">
            <text x="250.0" y="30.0">Ultralight</text>
            <text x="450.0" y="30.0">Regular</text>
            <text x="650.0" y="30.0">Black</text>
            <text id="template-version" fill="#505050" text-anchor="end" x="785.0" y="575.0">Template v.3.0</text>
            <a href="https://wangchujiang.com/#/app">
                <text fill="#505050" text-anchor="end" x="785.0" y="590.0">https://wangchujiang.com/#/app</text>
            </a>
        </g>
    </g>
    <g id="Guides" stroke="rgb(39, 170, 225)" stroke-width="0.5">
        <path id="Capline-S" d="M18,76 l800,0" />
        <path id="H-reference" d="M85,145.755 L87.685,145.755 L113.369,79.287 L114.052,79.287 L114.052,76 L112.148,76 L85,145.755 Z M95.693,121.536 L130.996,121.536 L130.263,119.313 L96.474,119.313 L95.693,121.536 Z M139.15,145.755 L141.787,145.755 L114.638,76 L113.466,76 L113.466,79.287 L139.15,145.755 Z" stroke="none" />
        <path id="Baseline-S" d="M18,146 l800,0" />
        <path id="left-margin-Ultralight-S" d="M211,56 l0,110" />
        <path id="right-margin-Ultralight-S" d="M319,56 l0,110" />
        <path id="left-margin-Regular-S" d="M411,56 l0,110" />
        <path id="right-margin-Regular-S" d="M519,56 l0,110" />
        <path id="left-margin-Black-S" d="M611,56 l0,110" />
        <path id="right-margin-Black-S" d="M719,56 l0,110" />
        <path id="Capline-M" d="M18,276 l800,0" />
        <path id="Baseline-M" d="M18,346 l800,0" />
        <path id="Capline-L" d="M18,476 l800,0" />
        <path id="Baseline-L" d="M18,546 l800,0" />
    </g>
    <g id="Symbols">
        <g id="Ultralight-S">
            <path d="M309,111 L288.258,131.742 L283.073,126.556 L298.629,111 L283.073,95.444 L288.258,90.258 L309,111 Z M231.371,111 L246.927,126.556 L241.742,131.742 L221,111 L241.742,90.258 L246.927,95.444 L231.371,111 Z M256.891,144 L249.087,144 L273.109,78 L280.913,78 L256.891,144 Z" />
        </g>
        <g id="Regular-S">
            <path d="M509,111 L488.258,131.742 L483.073,126.556 L498.629,111 L483.073,95.444 L488.258,90.258 L509,111 Z M431.371,111 L446.927,126.556 L441.742,131.742 L421,111 L441.742,90.258 L446.927,95.444 L431.371,111 Z M456.891,144 L449.087,144 L473.109,78 L480.913,78 L456.891,144 Z" />
        </g>
        <g id="Black-S">
            <path d="M709,111 L688.258,131.742 L683.073,126.556 L698.629,111 L683.073,95.444 L688.258,90.258 L709,111 Z M631.371,111 L646.927,126.556 L641.742,131.742 L621,111 L641.742,90.258 L646.927,95.444 L631.371,111 Z M656.891,144 L649.087,144 L673.109,78 L680.913,78 L656.891,144 Z" />
        </g>
    </g>
</svg>